<svg width="28" height="28" viewBox="0 0 24 24" fill="currentColor" xmlns="http://www.w3.org/2000/svg">
  <path d="M16.365 12.456c-.021-2.301 1.879-3.405 1.965-3.458-1.073-1.569-2.738-1.784-3.323-1.809-1.413-.143-2.759.834-3.478.834-.721 0-1.832-.813-3.011-.791-1.548.022-2.976.899-3.772 2.285-1.611 2.789-.413 6.919 1.158 9.186.768 1.109 1.684 2.354 2.886 2.309 1.16-.046 1.596-.752 2.998-.752 1.401 0 1.794.752 3.02.73 1.25-.021 2.042-1.131 2.804-2.244.879-1.282 1.241-2.521 1.262-2.585-.028-.011-2.418-.928-2.509-3.705zM14.084 5.7c.639-.775 1.069-1.854.951-2.928-.921.037-2.033.612-2.694 1.386-.592.687-1.112 1.783-.972 2.828 1.027.08 2.076-.522 2.715-1.286z"/>
</svg>