<svg width="28" height="28" viewBox="0 0 48 48" fill="none" xmlns="http://www.w3.org/2000/svg">
  <path d="M44.5 24.5C44.5 22.9 44.35 21.3 44.05 19.75H24V28.2H35.45C34.95 30.95 33.4 33.25 31.1 34.75V40.25H38.2C42.35 36.4 44.5 30.7 44.5 24.5Z" fill="#4285F4"/>
  <path d="M24 45.4C29.75 45.4 34.55 43.5 38.2 40.25L31.1 34.75C29.2 36.05 26.75 36.85 24 36.85C18.5 36.85 13.8 33.15 12.05 28.2H4.75V33.85C8.45 41.25 15.8 45.4 24 45.4Z" fill="#34A853"/>
  <path d="M12.05 28.2C11.1 25.45 11.1 22.55 12.05 19.8V14.15H4.75C1.6 20.45 1.6 27.55 4.75 33.85L12.05 28.2Z" fill="#FBBC04"/>
  <path d="M24 11.15C26.9 11.1 29.65 12.2 31.75 14.25L38.35 7.65C34.35 3.9 29.1 1.85 24 1.95C15.8 1.95 8.45 6.1 4.75 13.5L12.05 19.15C13.8 14.2 18.5 10.5 24 10.5V11.15Z" fill="#EA4335"/>
</svg>